<svg width="1741" height="778" viewBox="0 0 1741 778" fill="none" xmlns="http://www.w3.org/2000/svg">
<g opacity="0.7">
<path d="M212.564 686.579C213.057 687.861 214.994 688.866 216.892 688.822C218.79 688.779 219.928 687.704 219.436 686.421L212.564 686.579ZM239.224 584.459L236.165 582.872L239.224 584.459ZM643.991 400.305L646.248 402.377L643.991 400.305ZM1303.18 255.507L1303.95 253.401L1303.18 255.507ZM219.436 686.421C207.58 655.551 212.536 614.083 242.283 586.047L236.165 582.872C205.371 611.895 200.281 654.597 212.564 686.579L219.436 686.421ZM242.283 586.047C261.203 568.216 272.583 557.738 294.648 546.384C316.822 534.972 349.821 522.66 412.077 501.386L407.787 497.16C345.6 518.41 312.165 530.86 289.556 542.496C266.837 554.187 255.084 565.041 236.165 582.872L242.283 586.047ZM412.077 501.386C474.441 480.075 504.375 466.288 533.076 452.32C561.692 438.395 588.994 424.335 646.248 402.377L641.734 398.232C584.207 420.294 556.701 434.456 528.093 448.378C499.57 462.259 469.866 475.946 407.787 497.16L412.077 501.386ZM646.248 402.377C702.687 380.733 735.87 364.551 767.888 349.48C799.862 334.429 830.707 320.469 882.606 303.171L878.364 298.928C826.132 316.337 795.05 330.406 762.97 345.506C730.933 360.586 697.934 376.679 641.734 398.232L646.248 402.377ZM882.606 303.171C1014.23 259.298 1102.1 243.102 1165.54 240.254C1228.75 237.417 1267.87 247.82 1302.42 257.612L1303.95 253.401C1268.84 243.452 1228.38 232.707 1163.54 235.617C1098.93 238.517 1010.27 254.963 878.364 298.928L882.606 303.171ZM1302.42 257.612C1457.68 301.617 1351.03 270.081 1585.9 344.283L1587.76 340.17C1353.01 266.005 1459.42 297.466 1303.95 253.401L1302.42 257.612Z" fill="#FE9B00"/>
<path d="M302.689 774.951L400.022 617.304C425.247 576.591 494.967 541.653 562.071 496.237C645.95 439.466 804.321 296.575 856.164 256.768C908.007 216.962 1044.57 165.684 1114.88 144.344C1185.19 123.005 1198.47 125.39 1308.71 163.035C1388.53 190.292 1531.78 294.742 1590.16 343.738" stroke="#00A3FE" stroke-opacity="0.3" stroke-width="6"/>
<line y1="-2" x2="417.868" y2="-2" transform="matrix(-0.707138 -0.707076 0.948692 -0.316203 300.935 775.012)" stroke="#C4C4C4" stroke-opacity="0.6" stroke-width="4"/>
<line y1="-2" x2="1522.32" y2="-2" transform="matrix(0.948692 -0.316203 0.707138 0.707076 295.49 776.827)" stroke="#C3C3C3" stroke-opacity="0.6" stroke-width="4"/>
<line y1="-1" x2="1516.58" y2="-1" transform="matrix(0.948692 -0.316203 0.707138 0.707076 250.639 724.72)" stroke="#797979" stroke-opacity="0.3" stroke-width="2" stroke-dasharray="6 6"/>
<line y1="-1" x2="1516.58" y2="-1" transform="matrix(0.948692 -0.316203 0.707138 0.707076 201.914 676)" stroke="#797979" stroke-opacity="0.3" stroke-width="2" stroke-dasharray="6 6"/>
<line y1="-1" x2="1516.58" y2="-1" transform="matrix(0.948692 -0.316203 0.707138 0.707076 153.19 627.28)" stroke="#797979" stroke-opacity="0.3" stroke-width="2" stroke-dasharray="6 6"/>
<line y1="-1" x2="1516.58" y2="-1" transform="matrix(0.948692 -0.316203 0.707138 0.707076 104.465 578.56)" stroke="#797979" stroke-opacity="0.3" stroke-width="2" stroke-dasharray="6 6"/>
<line y1="-1" x2="1516.58" y2="-1" transform="matrix(0.948692 -0.316203 0.707138 0.707076 55.741 529.839)" stroke="#797979" stroke-opacity="0.3" stroke-width="2" stroke-dasharray="6 6"/>
<line y1="-1" x2="1516.58" y2="-1" transform="matrix(0.948692 -0.316203 0.707138 0.707076 7.01648 481.119)" stroke="#797979" stroke-opacity="0.3" stroke-width="2" stroke-dasharray="6 6"/>
</g>
<line y1="-2" x2="417.212" y2="-2" transform="matrix(0.707138 0.707076 -0.948692 0.316203 833 203.999)" stroke="#929292" stroke-width="4" stroke-dasharray="8 8"/>
<g filter="url(#filter0_d_3_73)">
<ellipse cx="6.84647" cy="5.30307" rx="6.84647" ry="5.30307" transform="matrix(0.948692 -0.316203 0.707138 0.707076 909 286.33)" fill="#BFBFBF" fill-opacity="0.8" shape-rendering="crispEdges"/>
</g>
<path d="M878.244 287.833C877.635 288.036 876.978 288.142 876.273 288.15C875.564 288.155 874.854 288.063 874.143 287.876C873.438 287.687 872.78 287.405 872.171 287.031L873.54 286.1C874.099 286.44 874.69 286.647 875.312 286.723C875.93 286.794 876.487 286.744 876.984 286.573C877.429 286.419 877.746 286.208 877.935 285.942C878.124 285.675 878.185 285.38 878.12 285.057C878.051 284.73 877.846 284.396 877.507 284.057C876.998 283.548 876.364 283.199 875.606 283.01C874.854 282.82 874.137 282.838 873.453 283.066C873.26 283.13 873.082 283.218 872.919 283.329C872.763 283.438 872.63 283.555 872.521 283.682L870.635 282.911L872.114 278.608L872.684 278.927L866.707 280.919L865.441 279.653L872.835 277.188L874.101 278.455L873.082 282.239L872.632 281.812C873.406 281.554 874.208 281.46 875.036 281.529C875.859 281.594 876.646 281.795 877.394 282.134C878.144 282.467 878.791 282.905 879.334 283.448C879.919 284.033 880.254 284.615 880.338 285.192C880.428 285.767 880.292 286.288 879.93 286.753C879.574 287.217 879.012 287.577 878.244 287.833ZM884.055 285.658L882.88 284.472L884.657 279.111C884.805 278.683 884.827 278.313 884.722 278.003C884.622 277.692 884.443 277.406 884.184 277.147C883.858 276.821 883.468 276.56 883.016 276.366C882.559 276.167 882.084 276.049 881.589 276.01C881.095 275.971 880.626 276.025 880.182 276.173C879.727 276.325 879.4 276.541 879.203 276.822C879.007 277.097 878.941 277.399 879.005 277.728C879.069 278.058 879.256 278.374 879.567 278.678L877.74 279.287C877.146 278.693 876.806 278.113 876.719 277.548C876.633 276.977 876.781 276.461 877.163 276C877.54 275.535 878.136 275.167 878.95 274.896C879.724 274.638 880.55 274.538 881.428 274.596C882.301 274.65 883.141 274.845 883.948 275.181C884.761 275.516 885.458 275.973 886.039 276.555C886.459 276.975 886.742 277.356 886.886 277.698C887.031 278.04 887.081 278.385 887.035 278.734C886.989 279.083 886.891 279.478 886.74 279.919L885.356 284.045L884.778 283.729L891.105 281.62L892.372 282.886L884.055 285.658ZM898.262 281.186C897.631 281.397 896.946 281.498 896.209 281.489C895.473 281.474 894.741 281.361 894.015 281.151C893.284 280.936 892.614 280.634 892.003 280.243L893.376 279.328C893.744 279.567 894.144 279.747 894.577 279.869C895.016 279.989 895.449 280.051 895.878 280.055C896.303 280.054 896.687 279.997 897.028 279.884C897.478 279.734 897.804 279.517 898.007 279.235C898.216 278.95 898.29 278.637 898.229 278.295C898.174 277.952 897.983 277.617 897.656 277.29C897.321 276.955 896.906 276.688 896.413 276.491C895.925 276.292 895.418 276.175 894.891 276.141C894.365 276.102 893.883 276.155 893.445 276.301C892.944 276.468 892.594 276.683 892.396 276.948C892.197 277.212 892.098 277.474 892.1 277.733L890.139 277.844L885.697 272.902L892.331 270.69L893.585 271.944L887.864 273.851L888.087 273.106L891.397 276.814L890.709 276.593C890.792 276.243 890.994 275.93 891.317 275.653C891.639 275.375 892.022 275.163 892.466 275.015C893.229 274.761 894.041 274.665 894.902 274.729C895.768 274.791 896.602 274.991 897.403 275.329C898.2 275.663 898.885 276.117 899.458 276.69C900.026 277.258 900.347 277.841 900.421 278.439C900.491 279.032 900.339 279.575 899.966 280.067C899.593 280.559 899.025 280.932 898.262 281.186ZM905.732 280.47L905.251 279.841C905.508 279.772 905.665 279.675 905.721 279.549C905.777 279.422 905.756 279.28 905.657 279.12C905.558 278.961 905.403 278.795 905.192 278.622L904.211 278.949L902.677 277.415L904.564 276.786L906.225 278.447C906.725 278.948 906.941 279.38 906.871 279.742C906.807 280.103 906.427 280.346 905.732 280.47ZM913.171 276.217C912.539 276.428 911.854 276.529 911.117 276.52C910.381 276.505 909.65 276.392 908.923 276.182C908.193 275.967 907.522 275.665 906.912 275.274L908.284 274.359C908.652 274.598 909.053 274.778 909.486 274.9C909.924 275.02 910.358 275.081 910.787 275.085C911.212 275.085 911.595 275.028 911.937 274.914C912.386 274.765 912.713 274.548 912.916 274.266C913.124 273.981 913.198 273.668 913.137 273.326C913.082 272.983 912.891 272.648 912.565 272.321C912.229 271.986 911.815 271.719 911.321 271.522C910.834 271.322 910.326 271.206 909.799 271.172C909.274 271.132 908.792 271.186 908.354 271.332C907.853 271.499 907.503 271.714 907.304 271.978C907.105 272.243 907.007 272.505 907.008 272.764L905.047 272.875L900.605 267.932L907.239 265.721L908.493 266.975L902.772 268.882L902.995 268.137L906.305 271.845L905.618 271.624C905.7 271.274 905.903 270.961 906.225 270.683C906.548 270.406 906.931 270.194 907.375 270.046C908.138 269.792 908.949 269.696 909.81 269.76C910.676 269.822 911.51 270.022 912.311 270.36C913.108 270.694 913.793 271.148 914.366 271.72C914.935 272.289 915.256 272.872 915.33 273.47C915.4 274.063 915.248 274.606 914.875 275.098C914.502 275.59 913.934 275.963 913.171 276.217ZM922.709 272.784L913.544 263.62L915.354 263.017L928.217 267.808L921.408 260.999L923.218 260.396L932.382 269.559L930.572 270.163L917.703 265.365L924.519 272.18L922.709 272.784ZM945.814 265.082L941.539 260.797C941.043 260.3 940.486 259.971 939.869 259.809C939.247 259.643 938.657 259.653 938.1 259.839C937.758 259.953 937.504 260.117 937.339 260.33C937.174 260.538 937.121 260.788 937.177 261.08C937.236 261.366 937.439 261.683 937.787 262.031L936.6 261.993C936.105 261.514 935.817 261.044 935.737 260.584C935.662 260.123 935.773 259.709 936.069 259.345C936.36 258.976 936.813 258.69 937.428 258.485C938.424 258.153 939.418 258.118 940.41 258.382C941.402 258.645 942.267 259.146 943.006 259.884L947.598 264.488L945.814 265.082ZM934.757 268.768L927.883 261.895L929.472 261.366L931.457 263.351L931.662 263.283L936.55 268.17L934.757 268.768ZM940.29 266.924L936.041 262.664C935.54 262.163 934.977 261.827 934.351 261.657C933.731 261.485 933.136 261.493 932.567 261.683C932.003 261.871 931.692 262.167 931.633 262.571C931.58 262.974 931.787 263.408 932.254 263.875L930.993 263.752C930.543 263.302 930.287 262.853 930.226 262.404C930.164 261.955 930.279 261.546 930.57 261.178C930.862 260.809 931.32 260.52 931.947 260.312C932.601 260.093 933.263 260.011 933.932 260.066C934.597 260.116 935.233 260.285 935.841 260.575C936.455 260.862 937.006 261.25 937.494 261.738L942.074 266.329L940.29 266.924Z" fill="#BFBFBF"/>
<line y1="-2" x2="243.255" y2="-2" transform="matrix(0.707138 0.707076 -0.948692 0.316203 1079 122)" stroke="#575757" stroke-width="4" stroke-dasharray="8 8"/>
<g filter="url(#filter1_d_3_73)">
<ellipse cx="6.84647" cy="5.30307" rx="6.84647" ry="5.30307" transform="matrix(0.948692 -0.316203 0.707138 0.707076 1095 145.33)" fill="#6D6D6D" fill-opacity="0.8" shape-rendering="crispEdges"/>
</g>
<path d="M1062.28 147.864L1061.11 146.677L1062.88 141.316C1063.03 140.888 1063.05 140.519 1062.95 140.209C1062.85 139.897 1062.67 139.612 1062.41 139.353C1062.09 139.026 1061.7 138.766 1061.24 138.571C1060.79 138.373 1060.31 138.254 1059.82 138.215C1059.32 138.176 1058.85 138.231 1058.41 138.379C1057.95 138.531 1057.63 138.747 1057.43 139.028C1057.23 139.302 1057.17 139.604 1057.23 139.934C1057.3 140.263 1057.48 140.58 1057.8 140.883L1055.97 141.492C1055.37 140.898 1055.03 140.319 1054.95 139.754C1054.86 139.183 1055.01 138.667 1055.39 138.206C1055.77 137.741 1056.36 137.372 1057.18 137.101C1057.95 136.843 1058.78 136.743 1059.66 136.801C1060.53 136.855 1061.37 137.05 1062.18 137.387C1062.99 137.721 1063.69 138.179 1064.27 138.76C1064.69 139.18 1064.97 139.561 1065.11 139.903C1065.26 140.245 1065.31 140.591 1065.26 140.94C1065.22 141.289 1065.12 141.683 1064.97 142.124L1063.58 146.251L1063.01 145.934L1069.33 143.826L1070.6 145.092L1062.28 147.864ZM1077.13 143.178C1076.29 143.457 1075.42 143.568 1074.5 143.511C1073.58 143.449 1072.7 143.241 1071.85 142.884C1071.01 142.527 1070.27 142.036 1069.65 141.412L1066.49 138.256C1065.87 137.632 1065.5 137.02 1065.38 136.419C1065.28 135.816 1065.41 135.272 1065.78 134.786C1066.15 134.296 1066.75 133.911 1067.58 133.633C1068.42 133.354 1069.3 133.245 1070.22 133.306C1071.13 133.363 1072.01 133.571 1072.86 133.929C1073.7 134.285 1074.44 134.775 1075.07 135.398L1078.22 138.555C1078.85 139.179 1079.21 139.792 1079.32 140.394C1079.44 140.995 1079.31 141.541 1078.94 142.031C1078.57 142.517 1077.97 142.899 1077.13 143.178ZM1075.86 141.905C1076.31 141.754 1076.65 141.535 1076.85 141.251C1077.06 140.96 1077.14 140.64 1077.09 140.29C1077.03 139.936 1076.83 139.587 1076.49 139.244L1073.15 135.909C1072.81 135.57 1072.39 135.299 1071.9 135.097C1071.39 134.891 1070.87 134.77 1070.34 134.734C1069.8 134.692 1069.31 134.747 1068.85 134.899C1068.4 135.051 1068.06 135.272 1067.85 135.563C1067.64 135.847 1067.57 136.166 1067.63 136.52C1067.68 136.87 1067.88 137.215 1068.22 137.554L1071.55 140.889C1071.89 141.232 1072.32 141.507 1072.82 141.713C1073.32 141.915 1073.83 142.037 1074.37 142.079C1074.91 142.115 1075.4 142.057 1075.86 141.905ZM1085.75 140.05L1078.05 132.35L1076.79 134.171L1075.31 132.688L1076.59 130.886L1078.41 130.28L1087.57 139.443L1085.75 140.05ZM1091.48 140.169L1091 139.54C1091.26 139.471 1091.41 139.373 1091.47 139.247C1091.53 139.121 1091.5 138.978 1091.41 138.819C1091.31 138.659 1091.15 138.493 1090.94 138.32L1089.96 138.648L1088.43 137.114L1090.31 136.485L1091.97 138.146C1092.47 138.647 1092.69 139.078 1092.62 139.441C1092.56 139.802 1092.18 140.044 1091.48 140.169ZM1098.7 135.965C1098.09 136.168 1097.43 136.274 1096.72 136.282C1096.02 136.287 1095.31 136.195 1094.59 136.008C1093.89 135.819 1093.23 135.537 1092.62 135.163L1093.99 134.232C1094.55 134.572 1095.14 134.779 1095.76 134.855C1096.38 134.926 1096.94 134.876 1097.44 134.705C1097.88 134.551 1098.2 134.34 1098.39 134.074C1098.58 133.807 1098.64 133.512 1098.57 133.189C1098.5 132.861 1098.3 132.528 1097.96 132.189C1097.45 131.68 1096.82 131.331 1096.06 131.142C1095.31 130.952 1094.59 130.97 1093.91 131.198C1093.71 131.262 1093.53 131.35 1093.37 131.461C1093.21 131.569 1093.08 131.687 1092.97 131.814L1091.09 131.043L1092.57 126.74L1093.14 127.059L1087.16 129.051L1085.89 127.785L1093.29 125.32L1094.55 126.587L1093.53 130.371L1093.08 129.944C1093.86 129.686 1094.66 129.592 1095.49 129.661C1096.31 129.726 1097.1 129.927 1097.85 130.266C1098.6 130.599 1099.24 131.037 1099.79 131.58C1100.37 132.165 1100.71 132.746 1100.79 133.324C1100.88 133.899 1100.74 134.42 1100.38 134.885C1100.03 135.349 1099.46 135.709 1098.7 135.965ZM1108.27 132.543L1099.11 123.38L1100.89 122.785L1105.17 127.061L1106.04 121.069L1108.26 120.329L1107.3 126.615L1117.83 129.359L1115.54 130.121L1105.68 127.57L1110.06 131.949L1108.27 132.543ZM1119.03 128.958L1109.87 119.795L1111.48 119.257L1122.83 124.663L1120.37 116.294L1122 115.751L1131.16 124.908L1129.47 125.471L1123.2 119.203L1125.5 126.801L1124.69 127.071L1114.44 122.123L1120.71 128.398L1119.03 128.958Z" fill="#6D6D6D"/>
<defs>
<filter id="filter0_d_3_73" x="907.744" y="279.584" width="23.0025" height="16.6609" filterUnits="userSpaceOnUse" color-interpolation-filters="sRGB">
<feFlood flood-opacity="0" result="BackgroundImageFix"/>
<feColorMatrix in="SourceAlpha" type="matrix" values="0 0 0 0 0 0 0 0 0 0 0 0 0 0 0 0 0 0 127 0" result="hardAlpha"/>
<feOffset/>
<feGaussianBlur stdDeviation="2"/>
<feComposite in2="hardAlpha" operator="out"/>
<feColorMatrix type="matrix" values="0 0 0 0 0 0 0 0 0 0 0 0 0 0 0 0 0 0 0.5 0"/>
<feBlend mode="normal" in2="BackgroundImageFix" result="effect1_dropShadow_3_73"/>
<feBlend mode="normal" in="SourceGraphic" in2="effect1_dropShadow_3_73" result="shape"/>
</filter>
<filter id="filter1_d_3_73" x="1093.74" y="138.584" width="23.0025" height="16.661" filterUnits="userSpaceOnUse" color-interpolation-filters="sRGB">
<feFlood flood-opacity="0" result="BackgroundImageFix"/>
<feColorMatrix in="SourceAlpha" type="matrix" values="0 0 0 0 0 0 0 0 0 0 0 0 0 0 0 0 0 0 127 0" result="hardAlpha"/>
<feOffset/>
<feGaussianBlur stdDeviation="2"/>
<feComposite in2="hardAlpha" operator="out"/>
<feColorMatrix type="matrix" values="0 0 0 0 0 0 0 0 0 0 0 0 0 0 0 0 0 0 0.5 0"/>
<feBlend mode="normal" in2="BackgroundImageFix" result="effect1_dropShadow_3_73"/>
<feBlend mode="normal" in="SourceGraphic" in2="effect1_dropShadow_3_73" result="shape"/>
</filter>
</defs>
</svg>
